HIERARCHY
ROOT Model_Hips
{
	OFFSET 0.000000 96.915077 0.000000
	CHANNELS 6 Xposition Yposition Zposition Xrotation Yrotation Zrotation
	JOINT Model_Spine
	{
		OFFSET 0.000000 11.137703 -1.289900
		CHANNELS 3 Xrotation Yrotation Zrotation
		JOINT Model_Spine1
		{
			OFFSET 0.000000 12.993942 -1.504922
			CHANNELS 3 Xrotation Yrotation Zrotation
			JOINT Model_Spine2
			{
				OFFSET 0.000000 14.850220 -1.719911
				CHANNELS 3 Xrotation Yrotation Zrotation
				JOINT Model_Neck
				{
					OFFSET 0.000000 16.706543 -1.934903
					CHANNELS 3 Xrotation Yrotation Zrotation
					JOINT Model_Head
					{
						OFFSET 0.000000 10.471298 2.002100
						CHANNELS 3 Xrotation Yrotation Zrotation
						JOINT Model_HeadTop_End
						{
							OFFSET 0.000000 20.842606 3.985100
							CHANNELS 3 Xrotation Yrotation Zrotation
							End Site
							{
								OFFSET 0.000000 21.220154 0.000000
							}
						}
					}
				}
				JOINT Model_LeftShoulder
				{
					OFFSET 7.008500 14.768600 -1.919946
					CHANNELS 3 Xrotation Yrotation Zrotation
					JOINT Model_LeftArm
					{
						OFFSET 14.126271 -3.718048 0.029937
						CHANNELS 3 Xrotation Yrotation Zrotation
						JOINT Model_LeftForeArm
						{
							OFFSET 28.282801 0.000000 0.000000
							CHANNELS 3 Xrotation Yrotation Zrotation
							JOINT Model_LeftHand
							{
								OFFSET 26.204689 0.000000 0.000000
								CHANNELS 3 Xrotation Yrotation Zrotation
								End Site
								{
									OFFSET 26.204704 0.000000 0.000000
								}
							}
						}
					}
				}
				JOINT Model_RightShoulder
				{
					OFFSET -7.008500 14.768555 -1.949840
					CHANNELS 3 Xrotation Yrotation Zrotation
					JOINT Model_RightArm
					{
						OFFSET -14.126281 -3.718018 -0.029932
						CHANNELS 3 Xrotation Yrotation Zrotation
						JOINT Model_RightForeArm
						{
							OFFSET -28.283798 0.000000 -0.000001
							CHANNELS 3 Xrotation Yrotation Zrotation
							JOINT Model_RightHand
							{
								OFFSET -26.204193 0.000000 -0.000001
								CHANNELS 3 Xrotation Yrotation Zrotation
								End Site
								{
									OFFSET -26.204208 0.000000 -0.000001
								}
							}
						}
					}
				}
			}
		}
	}
	JOINT Model_LeftUpLeg
	{
		OFFSET 8.327700 -6.193199 -0.402800
		CHANNELS 3 Xrotation Yrotation Zrotation
		JOINT Model_LeftLeg
		{
			OFFSET 0.735802 -42.108742 -0.610721
			CHANNELS 3 Xrotation Yrotation Zrotation
			JOINT Model_LeftFoot
			{
				OFFSET -0.735806 -36.833748 -0.172876
				CHANNELS 3 Xrotation Yrotation Zrotation
				JOINT Model_LeftToeBase
				{
					OFFSET -0.565857 -11.977769 16.297714
					CHANNELS 3 Xrotation Yrotation Zrotation
					JOINT Model_LeftToe_End
					{
						OFFSET -0.111712 -0.312793 7.857784
						CHANNELS 3 Xrotation Yrotation Zrotation
						End Site
						{
							OFFSET -0.111712 -0.312793 7.857784
						}
					}
				}
			}
		}
	}
	JOINT Model_RightUpLeg
	{
		OFFSET -8.327700 -6.193199 -0.516500
		CHANNELS 3 Xrotation Yrotation Zrotation
		JOINT Model_RightLeg
		{
			OFFSET -0.735785 -42.108738 -0.434061
			CHANNELS 3 Xrotation Yrotation Zrotation
			JOINT Model_RightFoot
			{
				OFFSET 0.735776 -36.833748 -0.021630
				CHANNELS 3 Xrotation Yrotation Zrotation
				JOINT Model_RightToeBase
				{
					OFFSET 0.565817 -11.977745 15.903093
					CHANNELS 3 Xrotation Yrotation Zrotation
					JOINT Model_RightToe_End
					{
						OFFSET 0.111702 -0.312791 7.811342
						CHANNELS 3 Xrotation Yrotation Zrotation
						End Site
						{
							OFFSET 0.111702 -0.312791 7.811342
						}
					}
				}
			}
		}
	}
}
MOTION
Frames: 5
Frame Time: 0.016667
3.615325 87.926102 -56.694031 -3.386974 -24.612442 -0.137374 16.880702 3.648324 -2.905957 2.902681 1.125308 -1.169568 2.909055 1.090842 -1.189170 -4.490881 -3.258857 1.893644 -4.490872 -3.258854 1.893640 -0.000000 0.000000 -0.000000 -0.671070 7.680051 -1.194554 17.504607 -26.631970 -51.243057 -0.000034 -69.460838 -0.000014 -0.000003 0.000001 -0.000001 -2.155612 -13.693118 8.964459 2.076948 42.052618 50.928360 0.000017 78.328275 -0.000022 0.000002 0.000001 0.000001 -25.889873 19.439883 3.793858 55.133273 10.084566 10.164894 -26.895890 7.780759 -9.035733 0.003165 0.000002 -0.000001 0.000000 -0.000001 -0.000000 -33.026973 -4.046534 -9.650653 72.988501 -2.451392 -10.031971 -13.570097 -0.212702 4.671636 -14.672507 -1.524032 8.944747 0.000001 -0.000004 0.000001 
3.533827 88.173637 -58.952549 -3.788110 -25.322126 0.026652 16.689439 4.381166 -3.167533 2.925664 1.337276 -1.247310 2.933493 1.301951 -1.269801 -4.255359 -3.325175 1.802989 -4.255352 -3.325169 1.802989 0.000001 -0.000001 0.000000 -0.665102 7.649614 -1.330818 21.384774 -26.250709 -50.562340 0.000005 -68.471403 0.000024 -0.000000 -0.000000 0.000000 -2.164806 -13.664975 8.855653 0.415946 44.538229 51.001378 -0.000008 77.939234 0.000015 -0.000000 0.000002 -0.000001 -26.669162 19.491437 4.216377 53.937584 10.121789 10.169341 -24.514392 7.506588 -9.198840 -0.001471 -0.000002 -0.000002 0.000000 -0.000000 -0.000000 -30.810048 -3.262520 -10.747134 73.060676 -2.205504 -10.033495 -13.831720 -0.105964 4.000718 -15.560267 -1.837919 9.782112 -0.000001 0.000003 -0.000001 
3.345191 88.633949 -61.281597 -3.950895 -25.713205 0.263614 16.290838 4.916228 -3.356145 2.926611 1.489328 -1.277947 2.934922 1.455770 -1.301593 -4.041153 -3.386120 1.639040 -4.041143 -3.386128 1.639042 0.000000 -0.000001 0.000000 -0.664495 7.647577 -1.469717 25.035708 -25.869401 -49.930988 -0.000018 -67.705965 -0.000014 0.000003 -0.000001 -0.000002 -2.184891 -13.524318 8.477884 -1.538926 46.876121 51.633700 -0.000088 77.632825 0.000123 0.000003 0.000002 0.000001 -27.225791 19.189369 4.471418 51.789571 10.151902 10.175127 -21.529900 7.214736 -9.406983 -0.002070 0.000003 -0.000000 -0.000000 0.000000 -0.000000 -28.577126 -2.774324 -11.759418 72.309997 -1.810781 -10.020285 -13.574764 0.008623 3.484535 -15.927711 -2.396062 11.139902 -0.000000 -0.000000 0.000000 
3.056260 89.313210 -63.718594 -3.885777 -25.779265 0.499318 15.752115 5.313156 -3.408795 2.883723 1.596897 -1.271614 2.891958 1.566189 -1.295521 -3.840227 -3.444710 1.415524 -3.840232 -3.444707 1.415521 0.000001 0.000003 -0.000000 -0.663601 7.619294 -1.566940 28.254609 -25.613300 -49.382626 -0.000026 -66.977771 -0.000025 -0.000001 -0.000000 0.000000 -2.211446 -13.312663 7.922738 -3.674604 48.933241 52.711906 0.000059 77.451811 -0.000044 0.000000 0.000001 -0.000000 -27.542449 18.560911 4.626779 48.572327 10.116086 10.183056 -17.820981 6.916259 -9.596397 -0.049443 -0.000003 0.000003 -0.000000 -0.000000 -0.000000 -26.377509 -2.567374 -12.460989 70.787370 -1.423457 -9.994968 -12.820337 0.134661 3.074381 -15.985182 -3.147788 12.747795 -0.000001 -0.000001 0.000000 
2.674534 90.198479 -66.296272 -3.646439 -25.552808 0.654839 15.184195 5.620374 -3.313139 2.775029 1.675223 -1.242275 2.783205 1.646879 -1.266740 -3.643392 -3.502932 1.171272 -3.643391 -3.502936 1.171273 -0.000000 -0.000001 -0.000000 -0.656923 7.510378 -1.575612 30.838912 -25.442330 -49.029946 -0.000019 -66.207722 0.000001 -0.000001 -0.000001 -0.000001 -2.237147 -13.105933 7.369089 -5.741559 50.694907 53.918316 0.000043 77.395305 -0.000025 0.000002 0.000001 -0.000002 -27.484953 17.865345 4.798503 44.035104 10.065108 10.197632 -13.439626 6.306482 -9.679823 -0.046058 0.000003 0.000001 0.000000 -0.000000 -0.000000 -24.264609 -2.578182 -12.684068 68.737371 -1.198512 -9.973583 -11.881507 0.237693 2.833721 -15.520089 -3.778429 13.951823 -0.000000 -0.000002 0.000001 
